<svg id="Layer_1" data-name="Layer 1" xmlns="http://www.w3.org/2000/svg" viewBox="0 0 344 293"><defs><style>.cls-1{fill:#e51c19;}.cls-2{fill:#0085f7;}.cls-3{fill:#ff4131;}.cls-4{fill:#e3075b;}.cls-5{fill:#ffbc00;}.cls-6{fill:#00a94b;}</style></defs><path class="cls-1" d="M99,59.09v81L40,94.59V70.47a25,25,0,0,1,25-25h0A48.29,48.29,0,0,1,94.65,55.7Z"/><path class="cls-2" d="M99,140.14V247.5H64.13A24.13,24.13,0,0,1,40,223.37V94.59Z"/><polygon class="cls-3" points="245 59.09 245 143.9 172 196.5 120.09 156.43 99 140.14 99 59.09 172 115.98 245 59.09"/><polygon class="cls-4" points="172 196.5 120 156.5 120.09 156.43 172 196.5"/><path class="cls-5" d="M304,70.47v30.91L245,143.9V59.09l4.35-3.39A48.29,48.29,0,0,1,279,45.5h0A25,25,0,0,1,304,70.47Z"/><path class="cls-6" d="M304,101.38v122a24.13,24.13,0,0,1-24.13,24.13H245V143.9Z"/></svg>