<svg id="Layer_1" data-name="Layer 1" xmlns="http://www.w3.org/2000/svg" xmlns:xlink="http://www.w3.org/1999/xlink" viewBox="0 0 335 307"><defs><style>.cls-1{fill:url(#linear-gradient);}.cls-2{fill:url(#linear-gradient-2);}.cls-3{fill:url(#linear-gradient-3);}</style><linearGradient id="linear-gradient" x1="66.92" y1="262.27" x2="266.66" y2="46.27" gradientUnits="userSpaceOnUse"><stop offset="0" stop-color="#fcee21"/><stop offset="0.26" stop-color="#ecba1e"/><stop offset="0.51" stop-color="#df8f1b"/><stop offset="0.97" stop-color="#e3075b"/></linearGradient><linearGradient id="linear-gradient-2" x1="65.31" y1="260.77" x2="265.04" y2="44.77" xlink:href="#linear-gradient"/><linearGradient id="linear-gradient-3" x1="70.28" y1="265.37" x2="270.02" y2="49.37" xlink:href="#linear-gradient"/></defs><path class="cls-1" d="M231.07,22.5H103.93A68.43,68.43,0,0,0,35.5,90.93V216.07a68.43,68.43,0,0,0,68.43,68.43H231.07a68.43,68.43,0,0,0,68.43-68.43V90.93A68.43,68.43,0,0,0,231.07,22.5Zm45.76,181.68a57.32,57.32,0,0,1-57.32,57.32h-104a57.32,57.32,0,0,1-57.32-57.32V101.82A57.32,57.32,0,0,1,115.49,44.5h104a57.32,57.32,0,0,1,57.32,57.32Z"/><path class="cls-2" d="M164.5,84.5a69,69,0,1,0,69,69A69,69,0,0,0,164.5,84.5Zm0,116A46.5,46.5,0,1,1,211,154,46.5,46.5,0,0,1,164.5,200.5Z"/><circle class="cls-3" cx="238" cy="84" r="17.5"/></svg>