<svg width="75" height="74" viewBox="0 0 75 74" fill="none" xmlns="http://www.w3.org/2000/svg">
<path d="M53.3365 2.81637C54.3321 3.78255 55.0192 4.84461 55.4642 5.53099C56.0605 6.45256 56.9121 8.00495 57.4036 10.1748C55.4018 5.78268 51.7656 2.3447 47.2682 0.592075C46.3154 0.216012 44.9438 0 43.9882 0C46.6492 1.74883 49.1537 3.65772 51.1306 6.54452C53.3264 9.75065 54.577 12.9544 55.2309 14.9948C56.6299 19.3628 57.2987 21.8884 57.6998 24.3123C58.3463 28.2212 58.4954 33.8747 56.2891 40.6247C55.0568 44.3959 51.9121 51.9852 42.6217 57.7303C39.0422 59.9436 34.5048 60.3827 32.3051 60.8464C33.4666 60.1725 37.185 57.8234 38.8892 53.0864C40.3954 48.9016 40.0463 43.6382 37.2433 40.1543C34.6363 36.9153 31.7432 37.7711 26.9362 35.5104C20.8882 32.6671 13.277 26.0505 12.4348 17.3463C12.0525 13.3939 13.0406 10.7278 13.7262 7.70598C4.26356 15.6413 0.151123 25.5242 0.151123 36.6511C0.151123 57.2783 16.8725 74 37.5 74C58.1275 74 74.8489 57.2783 74.8489 36.6511C74.8489 21.6853 66.0472 8.77469 53.3365 2.81637ZM13.2934 36.8875C12.8371 37.2244 12.0063 36.7126 11.7477 36.5533C10.8848 36.0223 10.2998 35.0991 10.2861 34.2562C10.2833 34.0656 10.2825 33.7256 10.5181 33.4998C10.6492 33.3746 10.8672 33.2717 11.0793 33.2959C11.6553 33.3617 11.57 34.2973 12.4297 35.1261C12.9929 35.6689 13.4863 35.7069 13.5575 36.1772C13.5967 36.4355 13.4984 36.7357 13.2934 36.8875ZM18.0543 33.7522C17.5991 34.0887 16.7684 33.5773 16.5093 33.418C15.6484 32.8866 15.0614 31.9638 15.0477 31.1205C15.0442 30.9296 15.0434 30.5895 15.2794 30.3645C15.4109 30.2393 15.6292 30.136 15.8413 30.1606C16.4173 30.2264 16.3312 31.162 17.1918 31.9908C17.7549 32.5336 18.2484 32.5716 18.3192 33.0419C18.3587 33.2987 18.2605 33.6004 18.0543 33.7522ZM30.8658 45.5702C30.0832 45.4861 29.3322 44.8858 29.3866 44.5097C29.4136 44.3207 29.6246 44.3348 30.5641 43.7392C31.0056 43.4594 31.2294 43.3138 31.4947 43.0575C31.7326 42.827 31.7495 42.7535 31.9228 42.647C32.1967 42.4784 32.6929 42.3297 33.0397 42.5824C33.4478 42.8787 33.4071 43.5494 33.4024 43.6105C33.3245 44.6663 32.0394 45.6974 30.8658 45.5714V45.5702Z" fill="#525252"/>
</svg>
