<svg width="163" height="164" viewBox="0 0 163 164" fill="none" xmlns="http://www.w3.org/2000/svg">
<g clip-path="url(#clip0_12_13)">
<path d="M81.5 0C59.8849 0 39.155 8.58657 23.8708 23.8708C8.58658 39.155 0 59.8849 0 81.5C0 96.13 10.6 121.71 10.6 121.71L0 163.32L44.57 154.17C44.57 154.17 68.21 163 81.5 163C103.115 163 123.845 154.413 139.129 139.129C154.413 123.845 163 103.115 163 81.5C163 59.8849 154.413 39.155 139.129 23.8708C123.845 8.58657 103.115 0 81.5 0ZM82 144.53C71.65 144.53 53.24 137.66 53.24 137.66L18.51 144.78L26.77 112.37C26.77 112.37 18.5 92.43 18.5 81C18.5059 68.4422 22.2352 56.1681 29.2163 45.7295C36.1973 35.2909 46.1168 27.1566 57.7204 22.355C69.324 17.5535 82.0908 16.3002 94.4066 18.7538C106.722 21.2073 118.034 27.2575 126.912 36.1393C135.79 45.0212 141.834 56.3358 144.282 68.6528C146.73 80.9697 145.471 93.736 140.663 105.337C135.856 116.939 127.717 126.854 117.276 133.83C106.834 140.807 94.5578 144.53 82 144.53Z" fill="white"/>
<path d="M121.21 103C121.21 117.05 102.71 118 102.71 118C70.91 120.89 46.57 80 43.06 66C41.22 58.61 45.46 52 49.9 47.44C50.7504 46.5624 51.8003 45.9033 52.9604 45.5191C54.1204 45.1348 55.3562 45.0367 56.5623 45.2332C57.7684 45.4296 58.9092 45.9148 59.8874 46.6473C60.8655 47.3798 61.6521 48.3379 62.18 49.44L69.86 65.63L62.52 75.2C65.1859 80.9941 68.9798 86.1988 73.68 90.51C81 97 92.5 100.8 92.5 100.8L102.39 90C102.39 90 121.21 98.25 121.21 103Z" fill="white"/>
</g>
<defs>
<clipPath id="clip0_12_13">
<rect width="163" height="163.32" fill="white"/>
</clipPath>
</defs>
</svg>
